<?xml version="1.0" standalone="no"?>
<!DOCTYPE svg PUBLIC "-//W3C//DTD SVG 20010904//EN"
 "http://www.w3.org/TR/2001/REC-SVG-20010904/DTD/svg10.dtd">
<svg version="1.0" xmlns="http://www.w3.org/2000/svg"
 width="192.000000pt" height="134.000000pt" viewBox="0 0 192.000000 134.000000"
 preserveAspectRatio="xMidYMid meet">

<g transform="translate(0.000000,134.000000) scale(0.100000,-0.100000)"
fill="#ffff" stroke="none">
<path d="M122 658 l3 -563 833 -3 832 -2 0 565 0 565 -835 0 -835 0 2 -562z
m1658 2 l0 -550 -825 0 -825 0 0 543 c0 299 3 547 7 550 3 4 375 7 825 7 l818
0 0 -550z"/>
<path d="M731 1132 c-1 -17 -79 -469 -86 -499 l-5 -23 -235 0 -235 0 0 -30 0
-30 230 0 c141 0 230 -4 230 -10 0 -35 -42 -217 -55 -236 -24 -38 -19 -44 40
-44 30 0 55 3 55 6 0 4 -12 18 -26 31 -25 23 -26 29 -20 81 3 31 11 83 18 115
l11 58 51 -3 51 -3 19 -119 20 -119 -22 -15 c-38 -25 -25 -32 58 -32 64 0 80
3 80 15 0 8 -4 15 -9 15 -17 0 -30 62 -96 450 -62 368 -72 422 -74 392z m8
-505 c1 -15 -6 -18 -36 -15 -43 3 -43 -5 -16 143 l17 90 17 -100 c10 -55 18
-108 18 -118z"/>
<path d="M1097 1115 c-4 -16 -34 -187 -67 -380 -66 -381 -72 -411 -94 -440
-24 -31 -20 -35 39 -35 59 0 72 14 35 38 -23 14 -26 55 -10 148 20 111 15 104
70 104 55 0 50 7 70 -104 15 -88 13 -153 -5 -160 -37 -14 -10 -26 59 -26 76 0
97 9 71 30 -18 15 -26 50 -99 485 -44 257 -65 361 -69 340z m12 -502 c1 -20
-4 -23 -39 -23 -31 0 -40 4 -40 18 0 22 30 193 37 212 6 14 41 -160 42 -207z"/>
<path d="M200 1096 c0 -4 7 -14 15 -22 23 -23 22 -395 -1 -418 -14 -15 -11
-16 36 -16 47 0 50 1 36 16 -12 12 -16 37 -16 105 0 87 1 89 23 89 45 0 62 34
62 121 0 99 -16 120 -99 127 -31 2 -56 1 -56 -2z m100 -41 c17 -21 17 -149 0
-170 -24 -29 -30 -14 -30 85 0 99 6 114 30 85z"/>
<path d="M380 1091 c0 -5 6 -11 13 -13 18 -7 17 -399 -2 -421 -12 -15 -9 -17
38 -17 48 0 51 1 37 16 -23 23 -24 412 -1 420 8 4 12 10 9 15 -7 12 -94 12
-94 0z"/>
<path d="M500 1091 c0 -6 5 -13 10 -16 6 -4 10 -85 10 -210 0 -184 -2 -205
-17 -214 -14 -8 -6 -10 34 -11 l51 0 -14 29 c-10 20 -14 53 -12 102 3 72 3 73
34 81 39 10 56 47 56 118 0 64 -18 109 -49 121 -32 12 -103 12 -103 0z m100
-57 c21 -63 -2 -177 -31 -158 -5 3 -9 48 -9 100 0 75 3 94 14 94 8 0 20 -16
26 -36z"/>
<path d="M1313 679 c15 -9 17 -30 17 -209 0 -127 -4 -200 -10 -200 -5 0 -10
-4 -10 -10 0 -5 23 -10 50 -10 28 0 50 5 50 10 0 6 -4 10 -10 10 -6 0 -10 37
-10 92 0 55 4 88 9 83 5 -6 22 -46 37 -90 33 -97 39 -105 75 -105 28 0 39 13
20 24 -4 3 -23 46 -41 95 -32 89 -32 89 -12 109 42 42 36 164 -11 197 -15 10
-45 15 -97 15 -56 -1 -71 -3 -57 -11z m119 -26 c13 -12 18 -31 18 -75 0 -68
-12 -98 -40 -98 -19 0 -20 7 -20 95 0 100 6 111 42 78z"/>
<path d="M1541 633 c1 -50 2 -53 9 -26 9 39 27 63 46 63 22 0 20 -388 -1 -396
-32 -13 -13 -24 40 -24 50 0 73 12 43 22 -10 4 -14 54 -16 196 -3 171 -2 193
13 198 21 9 41 -12 53 -56 10 -34 10 -33 11 23 l1 57 -100 0 -100 0 1 -57z"/>
</g>
</svg>
